<svg xmlns="http://www.w3.org/2000/svg" viewBox="0 0 112 112" role="img" aria-label="Hoteles"><style>
.tinta{fill:var(--on-color)} .trazo{stroke:var(--on-color);fill:none;stroke-linecap:round;stroke-linejoin:round}
.cal{fill:var(--papel-alto)} .cal-trazo{stroke:var(--papel-alto);fill:none;stroke-linecap:round;stroke-linejoin:round}
.mango{fill:var(--mango)} .faro{fill:var(--faro)} .celeste{fill:var(--celeste)} .manglar{fill:var(--manglar)}
.buganvilla{fill:var(--buganvilla)} .ventana{fill:var(--mango)} .grano{opacity:.18;mix-blend-mode:multiply}
[data-theme="dark"] .cal{fill:var(--rio)} [data-theme="dark"] .cal-trazo{stroke:var(--rio)}
[data-theme="dark"] .grano{mix-blend-mode:screen;opacity:.08}
</style><defs><filter id="g-hot" x="0" y="0" width="100%" height="100%"><feTurbulence type="fractalNoise" baseFrequency=".9" numOctaves="3" stitchTiles="stitch"/><feColorMatrix values="0 0 0 0 .5  0 0 0 0 .5  0 0 0 0 .5  0 0 0 1.4 -.55"/></filter><clipPath id="c-hot"><rect width="112" height="112" rx="12"/></clipPath></defs><g clip-path="url(#c-hot)"><rect class="celeste" width="112" height="112"/><circle class="cal" cx="88" cy="20" r="9"/><circle class="celeste" cx="92" cy="17" r="8"/><rect class="cal" x="18" y="22" width="60" height="96"/><polygon class="tinta" points="14,22 82,22 78,15 18,15"/><rect class="ventana" x="34" y="34" width="28" height="36" rx="2"/><path class="trazo" stroke-width="2" d="M48,34 v36 M34,52 h28"/><rect class="celeste" x="22" y="34" width="11" height="36"/><rect class="celeste" x="63" y="34" width="11" height="36"/><path class="trazo" stroke-width="1.2" d="M23,38 h9 M64,38 h9 M23,42 h9 M64,42 h9 M23,46 h9 M64,46 h9 M23,50 h9 M64,50 h9 M23,54 h9 M64,54 h9 M23,58 h9 M64,58 h9 M23,62 h9 M64,62 h9 M23,66 h9 M64,66 h9"/><rect class="tinta" x="14" y="74" width="68" height="4"/><path class="trazo" stroke-width="2" d="M18,78 v14 M24,78 v14 M30,78 v14 M36,78 v14 M42,78 v14 M48,78 v14 M54,78 v14 M60,78 v14 M66,78 v14 M72,78 v14 M78,78 v14 M14,92 h68"/><circle class="buganvilla" cx="22.4" cy="75.9" r="3.1"/><circle class="buganvilla" cx="15.9" cy="85.9" r="2.7"/><circle class="buganvilla" cx="15.5" cy="85.2" r="2.3"/><circle class="buganvilla" cx="25.3" cy="73.8" r="2.3"/><circle class="buganvilla" cx="25.0" cy="93.5" r="2.4"/><circle class="buganvilla" cx="19.8" cy="88.3" r="3.5"/><circle class="buganvilla" cx="29.0" cy="82.3" r="3.6"/><circle class="buganvilla" cx="15.2" cy="94.3" r="2.6"/><circle class="buganvilla" cx="17.8" cy="75.1" r="2.6"/><circle class="buganvilla" cx="35.2" cy="76.7" r="3.0"/><circle class="buganvilla" cx="30.6" cy="81.7" r="3.0"/><circle class="buganvilla" cx="15.6" cy="73.5" r="2.5"/><circle class="buganvilla" cx="31.7" cy="83.1" r="2.6"/><circle class="buganvilla" cx="29.2" cy="83.8" r="2.6"/><circle class="buganvilla" cx="34.7" cy="90.2" r="2.5"/><circle class="buganvilla" cx="28.9" cy="85.7" r="3.4"/><path class="trazo" stroke-width="1.6" d="M20,96 q8,10 4,18 M30,94 q2,10 -2,18"/><rect class="grano" width="112" height="112" filter="url(#g-hot)"/></g></svg>