<svg xmlns="http://www.w3.org/2000/svg" viewBox="0 0 112 112" role="img" aria-label="Compras y mercados"><style>
.tinta{fill:var(--on-color)} .trazo{stroke:var(--on-color);fill:none;stroke-linecap:round;stroke-linejoin:round}
.cal{fill:var(--papel-alto)} .cal-trazo{stroke:var(--papel-alto);fill:none;stroke-linecap:round;stroke-linejoin:round}
.mango{fill:var(--mango)} .faro{fill:var(--faro)} .celeste{fill:var(--celeste)} .manglar{fill:var(--manglar)}
.buganvilla{fill:var(--buganvilla)} .celeste-tinta{fill:var(--celeste-tinta)} .ventana{fill:var(--mango)} .grano{opacity:.18;mix-blend-mode:multiply}
[data-theme="dark"] .cal{fill:var(--rio)} [data-theme="dark"] .cal-trazo{stroke:var(--rio)}
[data-theme="dark"] .grano{mix-blend-mode:screen;opacity:.08}
</style><defs><filter id="g-com" x="0" y="0" width="100%" height="100%"><feTurbulence type="fractalNoise" baseFrequency=".9" numOctaves="3" stitchTiles="stitch"/><feColorMatrix values="0 0 0 0 .5  0 0 0 0 .5  0 0 0 0 .5  0 0 0 1.4 -.55"/></filter><clipPath id="c-com"><rect width="112" height="112" rx="12"/></clipPath></defs><g clip-path="url(#c-com)"><rect class="manglar" width="112" height="112"/><path class="faro" d="M4.0,18 h17.3 v18 a8.65,7 0 0 1 -17.3,0 z"/><path class="cal" d="M21.3,18 h17.3 v18 a8.65,7 0 0 1 -17.3,0 z"/><path class="faro" d="M38.6,18 h17.3 v18 a8.65,7 0 0 1 -17.3,0 z"/><path class="cal" d="M55.9,18 h17.3 v18 a8.65,7 0 0 1 -17.3,0 z"/><path class="faro" d="M73.2,18 h17.3 v18 a8.65,7 0 0 1 -17.3,0 z"/><path class="cal" d="M90.5,18 h17.3 v18 a8.65,7 0 0 1 -17.3,0 z"/><rect class="tinta" x="2" y="14" width="108" height="5" rx="2"/><rect class="tinta" x="10" y="36" width="4" height="70"/><rect class="tinta" x="98" y="36" width="4" height="70"/><rect class="tinta" x="6" y="80" width="100" height="8" rx="2"/><path class="trazo" stroke-width="3" d="M36,46 v8"/><path class="mango" stroke="var(--on-color)" stroke-width="1.2" d="M33.0,54 q-16,10 -10,26 q2,2 4,0 q0.0,-12 9.0,-26 z"/><path class="mango" stroke="var(--on-color)" stroke-width="1.2" d="M35.1,54 q-9,10 -3,26 q2,2 4,0 q-2.8,-12 4.1,-26 z"/><path class="mango" stroke="var(--on-color)" stroke-width="1.2" d="M37.2,54 q-2,10 4,26 q2,2 4,0 q-5.6,-12 -0.8,-26 z"/><path class="mango" stroke="var(--on-color)" stroke-width="1.2" d="M39.3,54 q5,10 11,26 q2,2 4,0 q-8.4,-12 -5.7,-26 z"/><path class="tinta" d="M58,70 h40 l-4,10 h-32 z"/><circle class="faro" stroke="var(--on-color)" stroke-width="1" cx="65" cy="64" r="6.2"/><circle class="mango" stroke="var(--on-color)" stroke-width="1" cx="78" cy="64" r="6.2"/><circle class="faro" stroke="var(--on-color)" stroke-width="1" cx="91" cy="64" r="6.2"/><circle class="mango" stroke="var(--on-color)" stroke-width="1" cx="71.5" cy="54" r="6.2"/><circle class="faro" stroke="var(--on-color)" stroke-width="1" cx="84.5" cy="54" r="6.2"/><rect class="grano" width="112" height="112" filter="url(#g-com)"/></g></svg>